<svg width="281" height="471" viewBox="0 0 281 471" fill="none" xmlns="http://www.w3.org/2000/svg">
<rect y="45" width="281" height="405" rx="140.5" fill="#FFB5DF"/>
<ellipse cx="18.5" cy="239.5" rx="2.5" ry="0.5" fill="#D9D9D9"/>
<ellipse cx="42.5" cy="21" rx="42.5" ry="21" transform="matrix(-1 0 0 1 169 168)" fill="white"/>
<ellipse cx="147.5" cy="193" rx="4.5" ry="10" fill="#E1ACBC"/>
<ellipse cx="110.5" cy="193" rx="4.5" ry="10" fill="#E1ACBC"/>
<ellipse cx="133.5" cy="335" rx="95.5" ry="101" fill="#F4F4F4"/>
<path d="M163.26 443.028L205.007 427C210.938 442.448 206.401 458.56 194.873 462.986C183.345 467.412 169.192 458.477 163.26 443.028Z" fill="#FFB5DF"/>
<path d="M110.486 443.028L68.7396 427C62.8083 442.448 67.3452 458.56 78.8732 462.986C90.4011 467.412 104.555 458.477 110.486 443.028Z" fill="#FFB5DF"/>
<path d="M227.5 263.242C225.858 268.188 221.377 274.925 217.532 279.797C206.85 293.333 192.061 299.244 184.5 293C176.939 286.755 179.469 270.72 190.151 257.183C193.996 252.311 201.12 244.927 205.5 242.242L206.5 243.242L196.808 252.615L191.5 258.242L189 261.242L187.5 265.242L185.308 271.615L187.308 273.615L196 281.742L203.5 288.242L207 286.742L210 284.242L213.5 280.742L217 276.742L222 269.742L226 262.242L227.5 263.242Z" fill="#FF00BF"/>
<path d="M57.1738 245.736C61.6242 248.449 67.1804 254.33 71.063 259.171C81.8506 272.624 84.2849 288.364 76.5 294.327C68.7151 300.29 53.6591 294.219 42.8715 280.766C38.9889 275.925 33.3959 267.322 31.7644 262.451L32.9637 261.701L39.9169 273.253L44.2065 279.69L46.5674 282.801L50.1277 285.162L55.8443 288.731L58.2428 287.232L68.1165 280.59L76.1365 274.744L75.4621 270.996L73.7007 267.511L71.0774 263.313L67.9669 259.003L62.2705 252.557L55.8621 246.973L57.1738 245.736Z" fill="#FF00BF"/>
<path d="M75.7836 149C86.5532 149 95.2836 143.466 95.2836 136.641C95.2836 129.815 95.2836 146.528 75.7836 146.034C56.2836 147.022 56.2836 129.815 56.2836 136.641C56.2836 143.466 65.0141 149 75.7836 149Z" fill="black"/>
<path d="M64.2995 145.416L63.097 143.704C47.86 155.263 40.8836 145.334 43.651 149.273C46.4183 153.211 55.663 151.484 64.2995 145.416Z" fill="black"/>
<path d="M70.5748 145.763C57.0288 159.263 48.7818 150.362 52.0532 153.893C55.3245 157.424 64.2534 154.471 71.9964 147.297L70.5748 145.763Z" fill="black"/>
<path d="M79.1931 147.52L77.7191 146.354C71.5743 157.666 63.3927 154.617 67.3334 156.086C70.797 157.376 75.5188 153.751 79.1931 147.52Z" fill="black"/>
<path d="M177.784 151C167.014 151 158.284 145.466 158.284 138.641C158.284 131.815 158.284 148.528 177.784 148.034C197.284 149.022 197.284 131.815 197.284 138.641C197.284 145.466 188.553 151 177.784 151Z" fill="black"/>
<path d="M189.268 147.416L190.47 145.704C205.707 157.263 212.684 147.334 209.916 151.273C207.149 155.211 197.904 153.484 189.268 147.416Z" fill="black"/>
<path d="M182.992 147.763C196.538 161.263 204.785 152.362 201.514 155.893C198.243 159.424 189.314 156.471 181.571 149.297L182.992 147.763Z" fill="black"/>
<path d="M174.374 149.52L175.848 148.354C181.993 159.666 190.175 156.617 186.234 158.086C182.77 159.376 178.048 155.751 174.374 149.52Z" fill="black"/>
<path d="M251.454 56.4733C254.375 59.2494 251.579 66.9332 245.21 73.6357C242.854 76.1152 240.338 78.1131 237.956 79.5057L228.93 71.5363C230.2 68.9694 232.143 66.2011 234.631 63.5827C241.001 56.8802 248.532 53.6972 251.454 56.4733Z" fill="#FF00BF"/>
<path d="M44.3136 44.7002C47.314 42.7293 54.4167 48.2412 60.178 57.0116C62.3094 60.2561 63.9585 63.492 65.0387 66.3814L56.3547 72.6843C54.019 70.5045 51.5635 67.5754 49.3127 64.1491C43.5514 55.3788 41.3132 46.6712 44.3136 44.7002Z" fill="#FF00BF"/>
<path d="M139.15 0.682107L158.268 49.3535L123.367 50.5349L139.15 0.682107Z" fill="#DFD155"/>
</svg>
